<svg width="40" height="24" viewBox="0 0 40 24" fill="none" xmlns="http://www.w3.org/2000/svg">
  <path d="M32.443 2H6.79775C6.69094 2 6.58394 2 6.47732 2.00062C6.3872 2.00126 6.29728 2.00226 6.20736 2.00472C6.01126 2.01002 5.81348 2.02159 5.61983 2.0564C5.42309 2.0918 5.24001 2.14956 5.0614 2.24049C4.88582 2.32979 4.72506 2.44658 4.58576 2.58595C4.44639 2.72531 4.32959 2.8858 4.24032 3.06158C4.14937 3.24018 4.09157 3.42332 4.05641 3.62021C4.02142 3.81392 4.00977 4.01166 4.00449 4.20756C4.00207 4.29747 4.00104 4.38739 4.00045 4.47729C3.99983 4.58413 4.00003 4.6909 4.00003 4.79794V19.2023C4.00003 19.3093 3.99983 19.4159 4.00045 19.5229C4.00104 19.6128 4.00207 19.7028 4.00449 19.7927C4.00977 19.9884 4.02142 20.1861 4.05641 20.3798C4.09157 20.5768 4.14937 20.7598 4.24032 20.9384C4.32959 21.1142 4.44639 21.2749 4.58576 21.4141C4.72506 21.5537 4.88582 21.6704 5.0614 21.7595C5.24001 21.8507 5.42309 21.9085 5.61983 21.9438C5.81348 21.9784 6.01126 21.9902 6.20736 21.9955C6.29728 21.9975 6.3872 21.9988 6.47732 21.9992C6.58394 22 6.69094 22 6.79775 22H32.443C32.5496 22 32.6566 22 32.7632 21.9992C32.8531 21.9988 32.943 21.9975 33.0333 21.9955C33.229 21.9902 33.4268 21.9784 33.6209 21.9438C33.8174 21.9085 34.0005 21.8507 34.1791 21.7595C34.3549 21.6704 34.5152 21.5537 34.6548 21.4141C34.7939 21.2749 34.9107 21.1142 35.0002 20.9384C35.0914 20.7598 35.1491 20.5768 35.1841 20.3798C35.2191 20.1861 35.2305 19.9884 35.2358 19.7927C35.2382 19.7028 35.2394 19.6128 35.2398 19.5229C35.2407 19.4159 35.2407 19.3093 35.2407 19.2023V4.79794C35.2407 4.6909 35.2407 4.58413 35.2398 4.47729C35.2394 4.38739 35.2382 4.29747 35.2358 4.20756C35.2305 4.01166 35.2191 3.81392 35.1841 3.62021C35.1491 3.42332 35.0914 3.24018 35.0002 3.06158C34.9107 2.8858 34.7939 2.72531 34.6548 2.58595C34.5152 2.44658 34.3549 2.32979 34.1791 2.24049C34.0005 2.14956 33.8174 2.0918 33.6209 2.0564C33.4268 2.02159 33.229 2.01002 33.0333 2.00472C32.943 2.00226 32.8531 2.00126 32.7632 2.00062C32.6566 2 32.5496 2 32.443 2Z" fill="black"/>
  <path d="M32.443 2.66663L32.7584 2.66723C32.8439 2.66783 32.9294 2.66876 33.0153 2.6711C33.1648 2.67514 33.3397 2.68324 33.5027 2.71245C33.6443 2.73797 33.7632 2.77678 33.8772 2.83483C33.9898 2.89204 34.0929 2.96701 34.183 3.05694C34.2734 3.14748 34.3485 3.2508 34.4064 3.36463C34.4642 3.47778 34.5027 3.59605 34.5281 3.73877C34.5572 3.89999 34.5653 4.07533 34.5694 4.22574C34.5717 4.31064 34.5728 4.39553 34.5733 4.48245C34.5741 4.58756 34.574 4.69261 34.574 4.79793V19.2023C34.574 19.3076 34.5741 19.4124 34.5732 19.5198C34.5728 19.6047 34.5717 19.6896 34.5694 19.7746C34.5653 19.9248 34.5573 20.1 34.5278 20.2632C34.5027 20.4039 34.4642 20.5222 34.4061 20.6359C34.3484 20.7495 34.2734 20.8527 34.1834 20.9427C34.0928 21.0333 33.99 21.108 33.8761 21.1657C33.7629 21.2235 33.6443 21.2623 33.504 21.2875C33.3377 21.3172 33.1555 21.3253 33.0183 21.329C32.9319 21.331 32.846 21.3321 32.758 21.3326C32.6531 21.3334 32.5479 21.3334 32.443 21.3334H6.79775C6.79636 21.3334 6.795 21.3334 6.79358 21.3334C6.68989 21.3334 6.58599 21.3334 6.4804 21.3325C6.39432 21.3321 6.30842 21.331 6.22538 21.3291C6.08503 21.3253 5.90272 21.3172 5.73778 21.2877C5.59629 21.2623 5.47766 21.2235 5.36298 21.165C5.25013 21.1078 5.1474 21.0331 5.05678 20.9423C4.96687 20.8526 4.89215 20.7497 4.83437 20.636C4.77654 20.5224 4.73785 20.4037 4.71241 20.2613C4.683 20.0985 4.67492 19.9239 4.67089 19.7747C4.66858 19.6893 4.66762 19.604 4.66707 19.5191L4.66666 19.2684L4.66668 19.2023V4.79793L4.66666 4.73176L4.66705 4.48166C4.66762 4.39625 4.66858 4.31087 4.67089 4.22554C4.67492 4.07622 4.683 3.9016 4.71265 3.73743C4.73787 3.59627 4.77654 3.47763 4.83467 3.36346C4.89199 3.25061 4.96685 3.1476 5.05724 3.05723C5.14727 2.96716 5.25034 2.89229 5.3639 2.83453C5.47736 2.77676 5.59621 2.73797 5.73771 2.71251C5.90074 2.68322 6.07572 2.67514 6.22558 2.67108C6.31101 2.66876 6.39643 2.66783 6.48122 2.66725L6.79775 2.66663H32.443Z" fill="white"/>
  <path d="M12.5285 8.72685C12.796 8.39228 12.9775 7.94304 12.9296 7.48398C12.5381 7.50345 12.0602 7.74231 11.7836 8.07715C11.5352 8.36388 11.3153 8.83193 11.3726 9.27175C11.8122 9.30988 12.2514 9.05204 12.5285 8.72685Z" fill="black"/>
  <path d="M12.9247 9.35762C12.2863 9.3196 11.7436 9.71991 11.4387 9.71991C11.1337 9.71991 10.6669 9.37678 10.162 9.38603C9.50485 9.39568 8.89508 9.76724 8.5616 10.3582C7.8757 11.5404 8.38059 13.294 9.0476 14.2568C9.37152 14.7332 9.76189 15.2577 10.2763 15.2388C10.7623 15.2198 10.9528 14.9242 11.5435 14.9242C12.1338 14.9242 12.3054 15.2388 12.8199 15.2293C13.3534 15.2198 13.6869 14.7527 14.0108 14.2759C14.3824 13.7329 14.5345 13.2086 14.5441 13.1798C14.5345 13.1703 13.5153 12.7793 13.5059 11.6069C13.4963 10.6253 14.3061 10.1583 14.3442 10.1294C13.8869 9.45304 13.1724 9.37678 12.9247 9.35762Z" fill="black"/>
  <path d="M18.4828 8.02912C19.8703 8.02912 20.8364 8.98548 20.8364 10.3779C20.8364 11.7753 19.8504 12.7366 18.4481 12.7366H16.9119V15.1795H15.802V8.02911H18.4828V8.02912ZM16.9119 11.805H18.1854C19.1517 11.805 19.7017 11.2847 19.7017 10.3829C19.7017 9.48106 19.1517 8.9657 18.1904 8.9657H16.9119V11.805Z" fill="black"/>
  <path d="M21.1263 13.6979C21.1263 12.7861 21.825 12.2262 23.0639 12.1568L24.4909 12.0726V11.6713C24.4909 11.0915 24.0994 10.7446 23.4455 10.7446C22.8259 10.7446 22.4394 11.0419 22.3454 11.5077H21.3345C21.394 10.5662 22.1966 9.87247 23.4851 9.87247C24.7486 9.87247 25.5563 10.5414 25.5563 11.587V15.1795H24.5305V14.3223H24.5058C24.2036 14.902 23.5445 15.2687 22.8607 15.2687C21.8399 15.2687 21.1263 14.6344 21.1263 13.6979ZM24.4909 13.2272V12.8159L23.2075 12.8952C22.5683 12.9398 22.2066 13.2222 22.2066 13.6682C22.2066 14.124 22.5832 14.4214 23.158 14.4214C23.9062 14.4214 24.4909 13.906 24.4909 13.2272Z" fill="black"/>
  <path d="M26.5247 17.0972V16.23C26.6038 16.2498 26.7822 16.2498 26.8714 16.2498C27.3669 16.2498 27.6345 16.0417 27.798 15.5066C27.798 15.4966 27.8922 15.1895 27.8922 15.1845L26.0093 9.96661H27.1687L28.4869 14.2083H28.5066L29.8248 9.96661H30.9546L29.0021 15.452C28.5563 16.7157 28.0409 17.122 26.9607 17.122C26.8714 17.122 26.6038 17.112 26.5247 17.0972Z" fill="black"/>
</svg>
