<svg width="40" height="24" viewBox="0 0 40 24" fill="none" xmlns="http://www.w3.org/2000/svg">
  <path d="M28.6 2.81C29.835 2.81 31.035 3.055 32.165 3.535C33.26 4 34.24 4.665 35.09 5.51C35.935 6.355 36.6 7.34 37.065 8.435C37.545 9.565 37.79 10.765 37.79 12C37.79 13.235 37.545 14.435 37.065 15.565C36.6 16.66 35.935 17.64 35.09 18.49C34.245 19.335 33.26 20 32.165 20.465C31.035 20.945 29.835 21.19 28.6 21.19H11C9.76499 21.19 8.56499 20.945 7.43499 20.465C6.33999 20 5.36 19.335 4.51 18.49C3.665 17.645 3 16.66 2.535 15.565C2.055 14.435 1.81 13.235 1.81 12C1.81 10.765 2.055 9.565 2.535 8.435C3 7.34 3.665 6.36 4.51 5.51C5.355 4.665 6.33999 4 7.43499 3.535C8.56499 3.055 9.76499 2.81 11 2.81H28.6ZM28.6 2H11C5.5 2 1 6.5 1 12C1 17.5 5.5 22 11 22H28.6C34.1 22 38.6 17.5 38.6 12C38.6 6.5 34.1 2 28.6 2Z" fill="#3C4043"/>
  <path d="M18.93 12.7101V15.7351H17.97V8.26505H20.515C21.16 8.26505 21.71 8.48005 22.16 8.91005C22.62 9.34006 22.85 9.86506 22.85 10.4851C22.85 11.1201 22.62 11.6451 22.16 12.0701C21.715 12.4951 21.165 12.7051 20.515 12.7051H18.93V12.7101ZM18.93 9.18505V11.7901H20.535C20.915 11.7901 21.235 11.6601 21.485 11.4051C21.74 11.1501 21.87 10.8401 21.87 10.4901C21.87 10.1451 21.74 9.84006 21.485 9.58506C21.235 9.32006 20.92 9.19005 20.535 9.19005H18.93V9.18505Z" fill="#3C4043"/>
  <path d="M25.36 10.455C26.07 10.455 26.63 10.645 27.04 11.025C27.45 11.405 27.655 11.925 27.655 12.585V15.735H26.74V15.025H26.7C26.305 15.61 25.775 15.9 25.115 15.9C24.55 15.9 24.08 15.735 23.7 15.4C23.32 15.065 23.13 14.65 23.13 14.15C23.13 13.62 23.33 13.2 23.73 12.89C24.13 12.575 24.665 12.42 25.33 12.42C25.9 12.42 26.37 12.525 26.735 12.735V12.515C26.735 12.18 26.605 11.9 26.34 11.665C26.075 11.43 25.765 11.315 25.41 11.315C24.875 11.315 24.45 11.54 24.14 11.995L23.295 11.465C23.76 10.79 24.45 10.455 25.36 10.455ZM24.12 14.165C24.12 14.415 24.225 14.625 24.44 14.79C24.65 14.955 24.9 15.04 25.185 15.04C25.59 15.04 25.95 14.89 26.265 14.59C26.58 14.29 26.74 13.94 26.74 13.535C26.44 13.3 26.025 13.18 25.49 13.18C25.1 13.18 24.775 13.275 24.515 13.46C24.25 13.655 24.12 13.89 24.12 14.165Z" fill="#3C4043"/>
  <path d="M32.8749 10.62L29.6749 17.9801H28.6849L29.8749 15.405L27.7649 10.62H28.8099L30.3299 14.29H30.3499L31.8299 10.62H32.8749Z" fill="#3C4043"/>
  <path d="M15.1115 12.1C15.1115 11.787 15.0835 11.4875 15.0315 11.1995H11.0075V12.8495L13.325 12.85C13.231 13.399 12.9285 13.867 12.465 14.179V15.2495H13.8445C14.65 14.504 15.1115 13.402 15.1115 12.1Z" fill="#4285F4"/>
  <path d="M12.4655 14.179C12.0815 14.438 11.587 14.5895 11.0085 14.5895C9.89104 14.5895 8.94304 13.8365 8.60354 12.8214H7.18054V13.9255C7.88554 15.3245 9.33454 16.2845 11.0085 16.2845C12.1655 16.2845 13.1375 15.904 13.845 15.249L12.4655 14.179Z" fill="#34A853"/>
  <path d="M8.46954 12.0025C8.46954 11.7175 8.51704 11.442 8.60354 11.183V10.079H7.18054C6.88904 10.6575 6.72504 11.3105 6.72504 12.0025C6.72504 12.6945 6.88954 13.3475 7.18054 13.926L8.60354 12.822C8.51704 12.563 8.46954 12.2875 8.46954 12.0025Z" fill="#FABB05"/>
  <path d="M11.0085 9.41503C11.64 9.41503 12.2055 9.63253 12.652 10.0575L13.8745 8.83603C13.132 8.14453 12.164 7.72003 11.0085 7.72003C9.33504 7.72003 7.88554 8.68003 7.18054 10.079L8.60354 11.183C8.94304 10.168 9.89104 9.41503 11.0085 9.41503Z" fill="#E94235"/>
</svg>
