<svg width="40" height="24" viewBox="0 0 40 24" fill="none" xmlns="http://www.w3.org/2000/svg">
  <path d="M14.9221 19.3625H11.4266V13.2563H14.9221V19.3625Z" fill="#100F0D"/>
  <path d="M15.1852 10.2048C15.1852 11.3547 14.3005 12.2845 13.2064 12.2845C12.1122 12.2845 11.2275 11.3509 11.2275 10.2048C11.2275 9.05491 12.1122 8.12512 13.2064 8.12512C14.3005 8.12512 15.1852 9.05491 15.1852 10.2048Z" fill="#100F0D"/>
  <path d="M21.3099 3.32827C23.7401 3.32827 25.7695 4.01898 27.1706 5.33207C28.7558 6.81214 29.5611 9.05503 29.5611 12C29.5611 17.8368 26.8637 20.6717 21.3099 20.6717C20.8802 20.6717 11.3724 20.6717 10.2639 20.6717C10.2639 19.4801 10.2639 4.51992 10.2639 3.32827C11.3724 3.32827 20.8802 3.32827 21.3099 3.32827ZM21.5482 2H9V22H21.5482V21.9962C24.289 21.9583 26.4592 21.241 28.0011 19.8634C29.8752 18.186 30.8249 15.5408 30.8249 12C30.8249 10.3074 30.5758 8.78937 30.0811 7.48767C29.608 6.24288 28.9111 5.18406 28.0083 4.34156C26.4195 2.85769 24.1879 2.05313 21.5446 2.00759V2.0038" fill="#100F0D"/>
  <path d="M20.9635 19.3663H16.5292V4.94505H20.9635H20.7829C24.4842 4.94505 28.4202 6.47826 28.4202 12.1747C28.4202 18.1974 24.4806 19.3663 20.7829 19.3663H20.9635Z" fill="#CC1068"/>
  <path d="M16.4318 9.25624V11.5485H16.9301C17.1179 11.5485 17.2515 11.5371 17.3345 11.5143C17.4428 11.4877 17.5331 11.4384 17.6053 11.3701C17.6776 11.3018 17.7353 11.1917 17.7787 11.0361C17.8256 10.8805 17.8473 10.668 17.8473 10.4023C17.8473 10.1329 17.8256 9.92796 17.7787 9.78755C17.7353 9.64333 17.6703 9.53328 17.5909 9.45358C17.5115 9.37388 17.4067 9.32075 17.2803 9.29039C17.1865 9.26762 17.0059 9.25624 16.7315 9.25624H16.4318ZM15.7673 8.668H16.9842C17.2587 8.668 17.4681 8.69077 17.6126 8.73252C17.8076 8.79324 17.9737 8.8995 18.1109 9.0513C18.2481 9.20311 18.3528 9.39286 18.425 9.61297C18.4973 9.83309 18.5334 10.1063 18.5334 10.4327C18.5334 10.7173 18.5009 10.964 18.4323 11.1727C18.3492 11.427 18.2337 11.6282 18.0784 11.7875C17.9628 11.9052 17.8076 12.0001 17.6089 12.0646C17.4609 12.1139 17.2659 12.1367 17.0204 12.1367H15.7673V8.668Z" fill="white"/>
  <path d="M16.9839 8.7629C17.2475 8.7629 17.4534 8.78567 17.587 8.82362C17.7639 8.87675 17.9192 8.97543 18.0456 9.11584C18.1756 9.26006 18.2731 9.43463 18.3417 9.64336C18.4103 9.85588 18.4464 10.1215 18.4464 10.4327C18.4464 10.706 18.4139 10.9451 18.3489 11.1386C18.2731 11.3739 18.1611 11.5713 18.0167 11.7155C17.912 11.8217 17.7675 11.909 17.5834 11.9697C17.4462 12.0153 17.2584 12.038 17.0201 12.038C17.0201 12.038 16.0126 12.038 15.8573 12.038C15.8573 11.8635 15.8573 8.93368 15.8573 8.75911C16.0126 8.75911 16.9839 8.75911 16.9839 8.75911V8.7629ZM15.6768 8.57315V12.2316H17.0201C17.2728 12.2316 17.4823 12.205 17.6375 12.1519C17.847 12.0798 18.0167 11.9811 18.1431 11.8521C18.3056 11.6851 18.432 11.4688 18.5186 11.2031C18.5908 10.9868 18.6233 10.7287 18.6233 10.4327C18.6233 10.0988 18.5836 9.81414 18.5114 9.58264C18.4356 9.34734 18.3236 9.15 18.1756 8.98681C18.0275 8.82362 17.847 8.70598 17.6375 8.64146C17.4823 8.59592 17.2692 8.57315 16.9839 8.57315H15.6768Z" fill="white"/>
  <path d="M16.7307 9.351C17.0593 9.351 17.2002 9.36618 17.258 9.38136C17.3663 9.40792 17.4566 9.45347 17.5252 9.52178C17.5938 9.59009 17.6516 9.68876 17.6913 9.81779C17.7346 9.95062 17.7527 10.148 17.7527 10.406C17.7527 10.6641 17.731 10.8652 17.6877 11.0132C17.6479 11.1499 17.5974 11.2485 17.5396 11.3055C17.4782 11.3624 17.4024 11.4041 17.3085 11.4269C17.2327 11.4459 17.1063 11.4573 16.9257 11.4573C16.9257 11.4573 16.6369 11.4573 16.5177 11.4573C16.5177 11.2903 16.5177 9.52178 16.5177 9.35479C16.6044 9.35479 16.7271 9.35479 16.7271 9.35479L16.7307 9.351ZM16.3408 9.16125V11.6432H16.9294C17.1243 11.6432 17.2652 11.6318 17.3555 11.6091C17.4782 11.5787 17.5829 11.5218 17.6624 11.4421C17.7454 11.3624 17.814 11.2371 17.8646 11.0664C17.9115 10.8994 17.9368 10.6831 17.9368 10.406C17.9368 10.1252 17.9115 9.91267 17.8646 9.76087C17.814 9.60147 17.7418 9.47624 17.6516 9.38515C17.5577 9.29407 17.4385 9.22956 17.3013 9.1992C17.2002 9.17643 17.016 9.16504 16.7344 9.16504H16.3444" fill="white"/>
  <path d="M19.2839 12.1405V8.67184H21.7286V9.26008H19.952V10.0267H21.6058V10.6149H19.952V11.5523H21.7936V12.1405H19.2875" fill="white"/>
  <path d="M21.6392 8.7629C21.6392 8.86916 21.6392 9.05512 21.6392 9.16138C21.4767 9.16138 19.8626 9.16138 19.8626 9.16138V10.1177C19.8626 10.1177 21.354 10.1177 21.5165 10.1177C21.5165 10.224 21.5165 10.41 21.5165 10.5162C21.354 10.5162 19.8626 10.5162 19.8626 10.5162V11.6434C19.8626 11.6434 21.5417 11.6434 21.7042 11.6434C21.7042 11.7496 21.7042 11.9356 21.7042 12.0418C21.5417 12.0418 19.5376 12.0418 19.3787 12.0418C19.3787 11.8673 19.3787 8.93747 19.3787 8.7629C19.5412 8.7629 21.4803 8.7629 21.6428 8.7629H21.6392ZM19.1946 8.57315V12.2316H21.8812V11.4536C21.8812 11.4536 20.202 11.4536 20.0396 11.4536C20.0396 11.317 20.0396 10.8426 20.0396 10.706C20.202 10.706 21.6934 10.706 21.6934 10.706V9.92799C21.6934 9.92799 20.202 9.92799 20.0396 9.92799C20.0396 9.80275 20.0396 9.47258 20.0396 9.34734C20.202 9.34734 21.8198 9.34734 21.8198 9.34734V8.56935H19.1946" fill="white"/>
  <path d="M24.2923 10.7629L23.8373 9.47635L23.3896 10.7629H24.2923ZM25.52 12.1367H24.7942L24.5054 11.3473H23.1873L22.9129 12.1329H22.2051L23.487 8.66421H24.1984L25.52 12.1329" fill="white"/>
  <path d="M24.1381 8.7629C24.1814 8.87296 25.2972 11.8065 25.3875 12.0418C25.2286 12.0418 24.9397 12.0418 24.8567 12.0418C24.8205 11.9394 24.5678 11.2525 24.5678 11.2525H23.1234C23.1234 11.2525 22.885 11.9356 22.8489 12.038C22.7659 12.038 22.4914 12.038 22.3362 12.038C22.4228 11.8028 23.5061 8.86916 23.5495 8.75911C23.6434 8.75911 24.0442 8.75911 24.1345 8.75911L24.1381 8.7629ZM23.4267 8.57315L22.0726 12.2316H22.9753C22.9753 12.2316 23.2136 11.5485 23.2498 11.4422C23.3581 11.4422 24.3367 11.4422 24.445 11.4422C24.4811 11.5447 24.7339 12.2278 24.7339 12.2278H25.6547L24.2608 8.56935H23.4267" fill="white"/>
  <path d="M23.8378 9.75321C23.9353 10.034 24.105 10.5046 24.1628 10.6678C24.0039 10.6678 23.6789 10.6678 23.52 10.6678C23.5778 10.5046 23.7403 10.0303 23.8378 9.75321ZM23.2636 10.8576H24.4227L23.8378 9.20293L23.2636 10.8576Z" fill="white"/>
  <path d="M26.0764 12.1405V8.69841H26.7408V11.5523H28.4018V12.1405H26.0764Z" fill="white"/>
  <path d="M26.6534 8.79313C26.6534 8.9715 26.6534 11.647 26.6534 11.647C26.6534 11.647 28.152 11.647 28.3109 11.647C28.3109 11.7533 28.3109 11.9392 28.3109 12.0455C28.152 12.0455 26.3284 12.0455 26.166 12.0455C26.166 11.8709 26.166 8.96771 26.166 8.79313C26.2815 8.79313 26.5379 8.79313 26.6498 8.79313H26.6534ZM25.989 8.60338V12.2353H28.4914V11.4573C28.4914 11.4573 26.9929 11.4573 26.834 11.4573C26.834 11.2789 26.834 8.60338 26.834 8.60338H25.989Z" fill="white"/>
</svg>
