<svg width="40" height="24" viewBox="0 0 40 24" fill="none" xmlns="http://www.w3.org/2000/svg">
  <path d="M31.6055 22H7.71874C6.21843 22 5 20.8199 5 19.3668V4.6332C5 3.1801 6.21843 2 7.71874 2H31.6146C33.1149 2 34.3333 3.1801 34.3333 4.6332V19.3668C34.3242 20.8199 33.1058 22 31.6055 22Z" fill="#36495D"/>
  <path d="M22.197 7.60739H17.1458V16.7064H22.197V7.60739Z" fill="#F16522"/>
  <path d="M29 12.1568C29 15.3518 26.4185 17.9395 23.2313 17.9395C21.8892 17.9395 20.6498 17.4817 19.6619 16.7064C21.0039 15.6507 21.8613 14.0065 21.8613 12.1568C21.8613 10.3071 21.0039 8.67231 19.6619 7.60733C20.6404 6.83196 21.8799 6.3742 23.2313 6.3742C26.4185 6.36486 29 8.96191 29 12.1568ZM28.4501 15.7348V15.548H28.5247V15.5106H28.3383V15.548H28.4129V15.7348H28.4501ZM28.8229 15.7348V15.5106H28.767L28.7018 15.6694L28.6365 15.5106H28.5806V15.7348H28.6179V15.5666L28.6831 15.7161H28.7297L28.795 15.5666V15.7348H28.8229Z" fill="#F89E1C"/>
  <path d="M17.4627 12.1571C17.4627 10.3074 18.3294 8.67253 19.6714 7.60755C18.6929 6.83217 17.4534 6.37442 16.1021 6.37442C12.9148 6.37442 10.3333 8.96213 10.3333 12.1571C10.3333 15.352 12.9148 17.9397 16.1021 17.9397C17.4441 17.9397 18.6836 17.482 19.6714 16.7066C18.3294 15.6416 17.4627 13.9974 17.4627 12.1571Z" fill="#E41B24"/>
</svg>
