<svg width="40" height="24" viewBox="0 0 40 24" fill="none" xmlns="http://www.w3.org/2000/svg">
  <path fill-rule="evenodd" clip-rule="evenodd" d="M17.2867 6.19023C18.1607 6.19023 18.9588 6.64184 19.4528 7.29874L19.9468 6.27234C19.2248 5.53334 18.2748 5.08173 17.1727 5.08173C15.5007 5.08173 14.0567 6.19023 13.4867 7.70929H12.6126L12.0806 8.94096H13.2207C13.2207 9.06413 13.2207 9.1873 13.2207 9.26941C13.2207 9.39258 13.2207 9.5568 13.2587 9.67997H12.6886L12.1566 10.9116H13.4867C14.0947 12.4307 15.5007 13.4571 17.1347 13.4571C17.9707 13.4571 18.7308 13.1697 19.3768 12.7181V11.2401C18.8448 11.8559 18.1227 12.2665 17.2867 12.2665C16.2987 12.2665 15.4627 11.7328 14.9307 10.9116H17.8567L18.3888 9.67997H14.5127C14.4747 9.51574 14.4747 9.39258 14.4747 9.22835C14.4747 9.10519 14.4747 9.02308 14.4747 8.94096H18.6928L19.2248 7.70929H14.8927C15.3487 6.80607 16.2607 6.19023 17.2867 6.19023Z" fill="#FFC200"/>
  <path d="M11.5859 12.3079C11.6999 11.9795 11.7759 11.4868 11.7759 10.7889C11.7759 10.5015 11.7759 10.2141 11.7379 9.96774C11.6999 9.55719 11.5479 9.26979 11.3199 9.02346C11.0159 8.69501 10.5219 8.53079 9.83789 8.44868C9.60988 8.40762 9.07787 8.36657 8.24186 8.32551L7.86185 8.28446C7.67184 8.28446 7.51984 8.2434 7.44384 8.16129C7.29184 8.07918 7.21583 7.8739 7.21583 7.54545C7.21583 7.21701 7.29184 6.97067 7.48184 6.88856C7.63384 6.80645 7.97585 6.72434 8.50786 6.72434C9.03987 6.72434 9.38188 6.80645 9.49588 6.97067C9.57188 7.09384 9.60988 7.34018 9.60988 7.66862H11.5859C11.5859 7.46334 11.6239 7.34018 11.6239 7.25806C11.6239 6.1085 11.2059 5.41056 10.3319 5.16422C9.98989 5.08211 9.38188 5 8.54586 5C8.01385 5 7.55784 5.04106 7.10183 5.04106C6.53182 5.16422 6.11381 5.28739 5.77181 5.57478C5.5438 5.739 5.3918 5.98534 5.2778 6.31378C5.20179 6.60117 5.12579 7.05279 5.12579 7.58651C5.12579 8.28446 5.20179 8.81818 5.3918 9.14663C5.6198 9.55719 6.03781 9.80352 6.68382 9.96774C6.91183 10.0088 7.36784 10.0499 8.01385 10.0909C8.81187 10.132 9.22988 10.173 9.34388 10.2141C9.60988 10.2962 9.72388 10.5425 9.72388 10.912C9.72388 11.0762 9.72388 11.1994 9.68588 11.3226C9.64788 11.4868 9.49588 11.61 9.34388 11.6921C9.22988 11.7331 9.00187 11.7331 8.62186 11.7331H7.89985C7.70984 11.7331 7.55784 11.6921 7.40584 11.61C7.21583 11.4868 7.10183 11.2815 7.10183 10.912C7.10183 10.871 7.10183 10.8299 7.10183 10.7478H5.12579C5.12579 11.4457 5.16379 11.9384 5.2778 12.2258C5.4298 12.7595 5.80981 13.129 6.34182 13.2933C6.75983 13.4164 7.55784 13.4985 8.65986 13.4985C9.30588 13.4985 9.79989 13.4575 10.1419 13.4164C10.9019 13.2522 11.3959 12.8827 11.5859 12.3079ZM25.1522 11.2405C25.9502 11.1173 26.4822 10.7067 26.7102 9.96774C26.8242 9.59824 26.9002 8.9824 26.9002 8.12023C26.9002 7.42229 26.8242 6.84751 26.7102 6.51906C26.4822 5.82111 26.0642 5.3695 25.3802 5.16422C25.1522 5.04106 24.7342 5 24.2022 5H20.2501V13.4985H22.3781V11.2815H23.6322H23.9742C24.6582 11.2815 25.0762 11.2815 25.1522 11.2405ZM22.3401 9.35191V6.88856H23.6702C23.8982 6.88856 24.0122 6.88856 24.0882 6.88856C24.3922 6.92962 24.5442 7.09384 24.6202 7.34018C24.6582 7.5044 24.6962 7.79179 24.6962 8.16129C24.6962 8.44868 24.6962 8.69501 24.6582 8.81818C24.6202 9.02346 24.5442 9.18768 24.3922 9.26979C24.3162 9.31085 24.0502 9.35191 23.6322 9.39296H22.3401V9.35191ZM28.2303 13.4985L28.6103 12.0205H31.4603L31.8783 13.4985H34.0064L31.6123 5H28.4203L26.0262 13.4985H28.2303ZM30.0163 6.68328L31.0043 10.3783H29.0663L30.0163 6.68328ZM5.12579 16.044H6.22782V18.8768H7.29184V16.044H8.39386V15.1408H5.12579V16.044ZM33.3224 17.5631C33.2463 17.4809 33.2083 17.3988 33.1323 17.3578C33.0563 17.3167 32.9803 17.2757 32.8663 17.2346C33.0183 17.1935 33.1323 17.1525 33.2464 17.0704C33.3984 16.9883 33.5124 16.8651 33.5884 16.7009C33.6644 16.5367 33.7024 16.3724 33.7024 16.1672C33.7024 15.9208 33.6644 15.7155 33.5504 15.5513C33.4364 15.3871 33.2844 15.2639 33.1323 15.2229C32.9423 15.1818 32.7143 15.1408 32.3723 15.1408H30.5863V18.8768H31.6503V17.3578H31.7263C31.8403 17.3578 31.9163 17.3988 31.9923 17.4399C32.0303 17.4809 32.1063 17.5631 32.1823 17.7273L32.7523 18.8768H34.0064L33.4744 17.8094C33.4744 17.7273 33.3984 17.6452 33.3224 17.5631ZM32.6003 16.4956C32.5623 16.5777 32.4863 16.5777 32.4103 16.6188C32.2583 16.6598 32.1823 16.6598 32.1443 16.6598H31.6883V15.9208H32.1443C32.3343 15.9208 32.4863 15.9619 32.5243 16.0029C32.6003 16.085 32.6383 16.1672 32.6383 16.2903C32.6383 16.3314 32.6383 16.4135 32.6003 16.4956ZM28.1542 17.2757H29.8263V16.4956H28.1542V15.9208H29.9403V15.1408H27.0902V18.8768H30.0163V18.0147H28.1542V17.2757ZM18.6921 17.1935L17.4 15.1408H16.412V18.8768H17.4V16.824L18.6921 18.8768H19.6801V15.1408H18.6921V17.1935ZM13.562 15.1408L12.2699 18.8768L11.7379 17.8094C11.6999 17.7683 11.6619 17.6862 11.5859 17.5631C11.5099 17.4809 11.4719 17.3988 11.4339 17.3578C11.3579 17.3167 11.2819 17.2757 11.1679 17.2346C11.3199 17.1935 11.4339 17.1525 11.5479 17.0704C11.6999 16.9883 11.8139 16.8651 11.8899 16.7009C11.9659 16.5367 12.0039 16.3724 12.0039 16.1672C12.0039 15.9208 11.9659 15.7155 11.8519 15.5513C11.7379 15.3871 11.5859 15.2639 11.4339 15.2229C11.2439 15.1818 11.0159 15.1408 10.6739 15.1408H8.88787V18.8768H9.95189V17.3578H10.0279C10.1419 17.3578 10.2179 17.3988 10.2939 17.4399C10.3319 17.4809 10.4079 17.5631 10.4839 17.7273L11.0539 18.8768H13.334L13.486 18.261H14.702L14.892 18.8768H15.994L14.702 15.1408H13.562ZM10.8639 16.4956C10.8259 16.5777 10.7499 16.5777 10.6739 16.6188C10.5219 16.6598 10.4459 16.6598 10.4079 16.6598H9.95189V15.9208H10.4079C10.5979 15.9208 10.7499 15.9619 10.7879 16.0029C10.8639 16.085 10.9019 16.1672 10.9019 16.2903C10.9019 16.3314 10.9019 16.4135 10.8639 16.4956ZM13.752 17.4399L14.132 16.085L14.512 17.4399H13.752ZM23.8982 18.8768H24.9622V17.3578H26.2922V16.6188H24.9622V15.9619H26.5202V15.1408H23.8602V18.8768H23.8982ZM22.7581 16.7009C22.5681 16.5777 22.2261 16.4956 21.7701 16.3724C21.5801 16.3314 21.4661 16.2903 21.4281 16.2493C21.3901 16.2082 21.3521 16.1672 21.3521 16.085C21.3521 16.0029 21.3901 15.9208 21.4281 15.8798C21.5041 15.8387 21.5801 15.7977 21.6941 15.7977C21.8461 15.7977 21.9601 15.8387 22.0361 15.9208C22.1121 16.0029 22.1881 16.1261 22.1881 16.2903L23.2142 16.2082C23.1762 15.8387 23.0241 15.5513 22.7961 15.346C22.5681 15.1818 22.2261 15.0997 21.7701 15.0997C21.4281 15.0997 21.1241 15.1408 20.9341 15.2639C20.7441 15.346 20.5541 15.5103 20.4781 15.6745C20.3641 15.8387 20.3261 16.044 20.3261 16.2082C20.3261 16.4956 20.4401 16.7419 20.6301 16.9472C20.8201 17.1525 21.1621 17.2757 21.6181 17.3988C21.9221 17.4809 22.0741 17.522 22.1501 17.6041C22.2261 17.6862 22.2641 17.7683 22.2641 17.8504C22.2641 17.9326 22.2261 18.0557 22.1501 18.1378C22.0741 18.2199 21.9601 18.261 21.8081 18.261C21.6181 18.261 21.4281 18.1789 21.3521 18.0147C21.2761 17.9326 21.2381 17.7683 21.2001 17.6041L20.1741 17.6862C20.2121 18.0557 20.3261 18.3842 20.5541 18.6305C20.7821 18.8768 21.2001 19 21.7701 19C22.1121 19 22.3781 18.9589 22.6061 18.8358C22.8341 18.7126 22.9861 18.5894 23.1382 18.3842C23.2522 18.1789 23.3282 17.9736 23.3282 17.7273C23.3282 17.522 23.2902 17.3578 23.1762 17.1935C23.1001 16.9472 22.9861 16.783 22.7581 16.7009Z" fill="#0054A8"/>
</svg>
