<svg width="40" height="24" viewBox="0 0 40 24" fill="none" xmlns="http://www.w3.org/2000/svg">
  <path d="M31.6055 22H7.71874C6.21843 22 5 20.8199 5 19.3668V4.6332C5 3.1801 6.21843 2 7.71874 2H31.6146C33.1149 2 34.3333 3.1801 34.3333 4.6332V19.3668C34.3242 20.8199 33.1058 22 31.6055 22Z" fill="#0066B2"/>
  <path d="M27.9024 15.2014H29.4304L28.1008 8.78601H26.7613C26.1461 8.78601 25.9873 9.26344 25.9873 9.26344L23.4968 15.2014H25.2332L25.5805 14.2466H27.7039L27.9024 15.2014ZM26.0667 12.9336L26.9399 10.5366L27.436 12.9336H26.0667Z" fill="white"/>
  <path d="M23.6258 10.3277L23.8639 8.94515C23.8639 8.94515 23.1296 8.66666 22.3656 8.66666C21.542 8.66666 19.5774 9.02473 19.5774 10.7952C19.5774 12.4562 21.8794 12.4761 21.8794 13.3415C21.8794 14.2068 19.8155 14.0576 19.1309 13.5105L18.8828 14.9528C18.8828 14.9528 19.627 15.3108 20.7681 15.3108C21.9092 15.3108 23.6258 14.724 23.6258 13.1127C23.6258 11.4417 21.3039 11.2925 21.3039 10.5664C21.294 9.84033 22.9213 9.93979 23.6258 10.3277Z" fill="white"/>
  <path d="M17.8607 15.2014H16.1937L17.2356 8.78601H18.9026L17.8607 15.2014Z" fill="white"/>
  <path d="M14.7848 8.78601L13.1972 13.2022L13.0087 12.2474L12.4431 9.3629C12.4431 9.3629 12.3736 8.78601 11.6493 8.78601H9.02977L9 8.89542C9 8.89542 9.80372 9.06451 10.7464 9.63145L12.195 15.2114H13.9315L16.5808 8.79596H14.7848V8.78601Z" fill="white"/>
  <path d="M13.0087 12.2474L12.4431 9.3629C12.4431 9.3629 12.3736 8.78601 11.6493 8.78601H9.02977L9 8.89542C9 8.89542 10.2602 9.15403 11.4707 10.1387C12.6316 11.0836 13.0087 12.2474 13.0087 12.2474Z" fill="#F9A533"/>
</svg>
